<svg width="600" height="160" viewBox="0 0 600 160" fill="none" xmlns="http://www.w3.org/2000/svg">
  <!-- Flower Icon -->
  <g transform="translate(10, 10)">
    <!-- Petals -->
    <ellipse cx="70" cy="30" rx="12" ry="28" fill="#165dff" transform="rotate(0 70 70)"/>
    <ellipse cx="70" cy="30" rx="12" ry="28" fill="#165dff" transform="rotate(30 70 70)"/>
    <ellipse cx="70" cy="30" rx="12" ry="28" fill="#165dff" transform="rotate(60 70 70)"/>
    <ellipse cx="70" cy="30" rx="12" ry="28" fill="#165dff" transform="rotate(90 70 70)"/>
    <ellipse cx="70" cy="30" rx="12" ry="28" fill="#165dff" transform="rotate(120 70 70)"/>
    <ellipse cx="70" cy="30" rx="12" ry="28" fill="#165dff" transform="rotate(150 70 70)"/>
    <ellipse cx="70" cy="30" rx="12" ry="28" fill="#165dff" transform="rotate(180 70 70)"/>
    <ellipse cx="70" cy="30" rx="12" ry="28" fill="#165dff" transform="rotate(210 70 70)"/>
    <ellipse cx="70" cy="30" rx="12" ry="28" fill="#165dff" transform="rotate(240 70 70)"/>
    <ellipse cx="70" cy="30" rx="12" ry="28" fill="#165dff" transform="rotate(270 70 70)"/>
    <ellipse cx="70" cy="30" rx="12" ry="28" fill="#165dff" transform="rotate(300 70 70)"/>
    <ellipse cx="70" cy="30" rx="12" ry="28" fill="#165dff" transform="rotate(330 70 70)"/>
    <!-- Center -->
    <circle cx="70" cy="70" r="18" fill="#165dff"/>
  </g>
  
  <!-- Text -->
  <text x="170" y="105" font-family="Arial, sans-serif" font-size="72" font-weight="700" fill="#1a1a1a">Edu Learn</text>
</svg>
